<svg width="38" height="31" viewBox="0 0 38 31" fill="none" xmlns="http://www.w3.org/2000/svg">
<path d="M35.8908 7.50735C35.7952 7.36931 35.6397 7.29402 35.4843 7.29402H9.34529L8.14954 3.21554C8.08976 3.02731 7.94627 2.88927 7.75495 2.85162L2.61324 1.78494C2.33822 1.7222 2.07516 1.92298 2.01537 2.21161C1.95558 2.50024 2.1469 2.77632 2.42192 2.83907L7.26469 3.843L8.47239 7.98422C8.47239 7.99677 8.4724 7.99677 8.48435 8.00932L12.5977 22.0518C12.6575 22.2777 12.8608 22.4283 13.088 22.4283H31.634C31.8612 22.4283 32.0644 22.2651 32.1242 22.0393L35.9865 7.98422C36.0224 7.82108 35.9865 7.64539 35.8908 7.50735ZM31.2394 21.3491H13.4587L9.65618 8.36069H34.8027L31.2394 21.3491Z" fill="#04327A" stroke="#04327A" stroke-width="0.5"/>
<path d="M14.8081 13.0526H30.0419C30.3289 13.0526 30.5561 12.8141 30.5561 12.513C30.5561 12.2118 30.3289 11.9734 30.0419 11.9734H14.8081C14.5211 11.9734 14.2939 12.2118 14.2939 12.513C14.2939 12.8141 14.5211 13.0526 14.8081 13.0526Z" fill="#04327A" stroke="#04327A" stroke-width="0.5"/>
<path d="M28.9004 16.1535H15.5918C15.3048 16.1535 15.0776 16.3919 15.0776 16.6931C15.0776 16.9943 15.3048 17.2327 15.5918 17.2327H28.9004C29.1874 17.2327 29.4146 16.9943 29.4146 16.6931C29.4027 16.3919 29.1755 16.1535 28.9004 16.1535Z" fill="#04327A" stroke="#04327A" stroke-width="0.5"/>
<path d="M16.77 23.5311C15.2753 23.5311 14.0557 24.8112 14.0557 26.3798C14.0557 27.9484 15.2753 29.2285 16.77 29.2285C18.2647 29.2285 19.4844 27.9484 19.4844 26.3798C19.4844 24.8112 18.2647 23.5311 16.77 23.5311ZM16.77 28.1618C15.8373 28.1618 15.072 27.3586 15.072 26.3798C15.072 25.401 15.8373 24.5978 16.77 24.5978C17.7027 24.5978 18.468 25.401 18.468 26.3798C18.468 27.3712 17.7027 28.1618 16.77 28.1618Z" fill="#04327A" stroke="#04327A" stroke-width="0.5"/>
<path d="M27.9375 23.5311C26.4428 23.5311 25.2231 24.8112 25.2231 26.3798C25.2231 27.9484 26.4428 29.2285 27.9375 29.2285C29.4322 29.2285 30.6518 27.9484 30.6518 26.3798C30.6518 24.8112 29.4322 23.5311 27.9375 23.5311ZM27.9375 28.1618C27.0048 28.1618 26.2395 27.3586 26.2395 26.3798C26.2395 25.401 27.0048 24.5978 27.9375 24.5978C28.8702 24.5978 29.6354 25.401 29.6354 26.3798C29.6235 27.3712 28.8702 28.1618 27.9375 28.1618Z" fill="#04327A" stroke="#04327A" stroke-width="0.5"/>
</svg>
