<svg xmlns="http://www.w3.org/2000/svg" xmlns:xlink="http://www.w3.org/1999/xlink" width="40" height="40" viewBox="0 0 40 40">
    <path id="Path_165" data-name="Path 165" d="M30.687,26.218,33.071,28.6a.667.667,0,0,1-.943.943L29.745,27.16A6,6,0,0,1,20,22.3a6.068,6.068,0,0,1,5.827-5.827,6,6,0,0,1,4.858,9.743m-1.337-.5a4.666,4.666,0,1,0-.1.1Z" fill="#04327a"/>
    <path id="Path_166" data-name="Path 166" d="M19.643,30.016H9.255v-23H27.286v6.42" fill="none" stroke="#04327a" stroke-linecap="round" stroke-linejoin="round" stroke-width="1.481"/>
    <line id="Line_98" data-name="Line 98" x2="11.892" transform="translate(12.486 11.945)" fill="none" stroke="#04327a" stroke-linecap="round" stroke-linejoin="round" stroke-width="1.481"/>
    <line id="Line_99" data-name="Line 99" x2="8.847" transform="translate(12.486 16.482)" fill="none" stroke="#04327a" stroke-linecap="round" stroke-linejoin="round" stroke-width="1.481"/>
    <line id="Line_100" data-name="Line 100" x2="5.946" transform="translate(12.486 21.02)" fill="none" stroke="#04327a" stroke-linecap="round" stroke-linejoin="round" stroke-width="1.481"/>
    <line id="Line_101" data-name="Line 101" x2="5.946" transform="translate(12.486 25.557)" fill="none" stroke="#04327a" stroke-linecap="round" stroke-linejoin="round" stroke-width="1.481"/>
</svg>
