<svg id="icon_osbonds_sec4_1_mb" xmlns="http://www.w3.org/2000/svg" xmlns:xlink="http://www.w3.org/1999/xlink" width="80" height="80" viewBox="0 0 80 80">
    <rect id="Rectangle_141" data-name="Rectangle 141" width="15.219" height="15.079" rx="3.882" transform="translate(12.286 23.99)" fill="none" stroke="#04327a" stroke-linecap="round" stroke-linejoin="round" stroke-width="2.222"/>
    <path id="Path_123" data-name="Path 123" d="M34.132,39.069h0a2.588,2.588,0,0,1-2.588-2.588v-9.9a2.588,2.588,0,0,1,2.588-2.588H44.175a2.588,2.588,0,0,1,2.588,2.588v9.9a2.588,2.588,0,0,1-2.588,2.588H42.5" fill="#df5429"/>
    <path id="Path_124" data-name="Path 124" d="M34.132,39.069h0a2.588,2.588,0,0,1-2.588-2.588v-9.9a2.588,2.588,0,0,1,2.588-2.588H44.175a2.588,2.588,0,0,1,2.588,2.588v9.9a2.588,2.588,0,0,1-2.588,2.588H42.5" fill="none" stroke="#04327a" stroke-linecap="round" stroke-linejoin="round" stroke-width="2.222"/>
    <rect id="Rectangle_142" data-name="Rectangle 142" width="15.219" height="15.079" rx="3.882" transform="translate(50.371 23.99)" fill="none" stroke="#04327a" stroke-linecap="round" stroke-linejoin="round" stroke-width="2.222"/>
    <path id="Path_125" data-name="Path 125" d="M46.893,44.987a1.493,1.493,0,0,1,.51-1.11,1.827,1.827,0,0,1,1.231-.462,1.661,1.661,0,0,1,1.736,1.572v5.465c0,4.687-1.307,11.586-7.676,11.586a8.912,8.912,0,0,1-6.5-2.524L28.967,50.85a2.186,2.186,0,0,1-.636-1.37,1.844,1.844,0,0,1,.63-1.369,2.312,2.312,0,0,1,3.044.007l4.061,3.726V36.135a1.633,1.633,0,0,1,.571-1.234,2.049,2.049,0,0,1,1.534-.505,1.885,1.885,0,0,1,1.772,1.831v6.211a1.5,1.5,0,0,1,.51-1.112,1.818,1.818,0,0,1,1.226-.457,1.655,1.655,0,0,1,1.736,1.569v1.18a1.5,1.5,0,0,1,.51-1.111,1.832,1.832,0,0,1,1.232-.461,1.661,1.661,0,0,1,1.736,1.572Z" fill="#fff"/>
    <path id="Path_126" data-name="Path 126" d="M46.893,44.987a1.493,1.493,0,0,1,.51-1.11,1.827,1.827,0,0,1,1.231-.462,1.661,1.661,0,0,1,1.736,1.572v5.465c0,4.687-1.307,11.586-7.676,11.586a8.912,8.912,0,0,1-6.5-2.524L28.967,50.85a2.186,2.186,0,0,1-.636-1.37,1.844,1.844,0,0,1,.63-1.369,2.312,2.312,0,0,1,3.044.007l4.061,3.726V36.135a1.633,1.633,0,0,1,.571-1.234,2.049,2.049,0,0,1,1.534-.505,1.885,1.885,0,0,1,1.772,1.831v6.211a1.5,1.5,0,0,1,.51-1.112,1.818,1.818,0,0,1,1.226-.457,1.655,1.655,0,0,1,1.736,1.569v1.18a1.5,1.5,0,0,1,.51-1.111,1.832,1.832,0,0,1,1.232-.461,1.661,1.661,0,0,1,1.736,1.572Z" fill="none" stroke="#04327a" stroke-linecap="round" stroke-linejoin="round" stroke-width="2.222"/>
    <line id="Line_80" data-name="Line 80" y2="5.671" transform="translate(39.942 42.438)" fill="#fff"/>
    <line id="Line_81" data-name="Line 81" y2="5.671" transform="translate(39.942 42.438)" fill="none" stroke="#04327a" stroke-linecap="round" stroke-linejoin="round" stroke-width="2.222"/>
    <line id="Line_82" data-name="Line 82" y2="6.111" transform="translate(43.414 43.619)" fill="#fff"/>
    <line id="Line_83" data-name="Line 83" y2="6.111" transform="translate(43.414 43.619)" fill="none" stroke="#04327a" stroke-linecap="round" stroke-linejoin="round" stroke-width="2.222"/>
    <line id="Line_84" data-name="Line 84" y2="5.84" transform="translate(46.893 44.987)" fill="#fff"/>
    <line id="Line_85" data-name="Line 85" y2="5.84" transform="translate(46.893 44.987)" fill="none" stroke="#04327a" stroke-linecap="round" stroke-linejoin="round" stroke-width="2.222"/>
</svg>
