<svg xmlns="http://www.w3.org/2000/svg" xmlns:xlink="http://www.w3.org/1999/xlink" width="40" height="40" viewBox="0 0 40 40">
    <path id="Path_160" data-name="Path 160" d="M24.054,16.479l2.384,2.383a.667.667,0,0,1-.943.943l-2.383-2.384a6,6,0,0,1-9.743-4.858A6.068,6.068,0,0,1,19.2,6.736a6,6,0,0,1,4.858,9.743m-1.337-.495a4.666,4.666,0,1,0-.1.1Z" fill="#04327a"/>
    <path id="Path_161" data-name="Path 161" d="M18.2,24.448v1.225c.093,0,.175.011.257.011,1.149,0,2.3,0,3.445,0a2.269,2.269,0,0,0,1.251-.408c.741-.468,1.5-.9,2.26-1.345.829-.487,1.657-.975,2.492-1.451a5.036,5.036,0,0,1,4.08-.443.684.684,0,0,1,.533.575c.048.3-.148.48-.382.626q-5.452,3.427-10.906,6.851a.742.742,0,0,1-.375.108c-2.4.007-4.8,0-7.192.009a.3.3,0,0,1-.33-.225c-.614-1.561-1.238-3.117-1.856-4.676a.419.419,0,0,1-.036-.261,5.406,5.406,0,0,1,1.7-2.558,3.8,3.8,0,0,1,3.382-.629,2.379,2.379,0,0,1,.437.124,3.934,3.934,0,0,0,1.685.252c.936-.009,1.874,0,2.81.013a1.1,1.1,0,0,1,.883,1.739,1.123,1.123,0,0,1-.989.462c-.946,0-1.891,0-2.837,0Z" fill="none" stroke="#04327a" stroke-linecap="round" stroke-linejoin="round" stroke-width="1.481"/>
    <path id="Path_162" data-name="Path 162" d="M8.74,25.351l2.445-1.482c.982,2.463,1.954,4.9,2.934,7.361-.4.239-.787.47-1.173.707-.407.251-.811.507-1.217.76h-.051q-1.4-3.505-2.793-7.012A3.145,3.145,0,0,0,8.74,25.4Z" fill="none" stroke="#04327a" stroke-linecap="round" stroke-linejoin="round" stroke-width="1.481"/>
</svg>
