<svg id="icon_kv_money" xmlns="http://www.w3.org/2000/svg" width="58" height="70" viewBox="0 0 58 70">
  <circle id="Ellipse_4" data-name="Ellipse 4" cx="19.042" cy="19.042" r="19.042" transform="translate(6.798 1)" fill="#df5429" stroke="#fff" stroke-miterlimit="10" stroke-width="2"/>
  <path id="Path_32" data-name="Path 32" d="M24.845,31.322a.628.628,0,0,1-.631-.631V28.849a8.3,8.3,0,0,1-3.289-.934A5.567,5.567,0,0,1,18.9,26.1a4.451,4.451,0,0,1-.737-2.223.513.513,0,0,1,.171-.4.584.584,0,0,1,.408-.158h2.342a.788.788,0,0,1,.5.144,1.043,1.043,0,0,1,.29.356,3.091,3.091,0,0,0,.619.986,3.182,3.182,0,0,0,1.223.8,5.36,5.36,0,0,0,1.973.315A5.029,5.029,0,0,0,28.5,25.3a1.972,1.972,0,0,0,.921-1.71,1.6,1.6,0,0,0-.486-1.223,4.484,4.484,0,0,0-1.54-.842,28.2,28.2,0,0,0-2.762-.8,15.669,15.669,0,0,1-3.289-1.144,5,5,0,0,1-2.013-1.7,4.675,4.675,0,0,1-.671-2.605,4.614,4.614,0,0,1,1.474-3.447,6.886,6.886,0,0,1,4.078-1.736V8.275a.628.628,0,0,1,.631-.632H26.45a.627.627,0,0,1,.631.632v1.868a7.392,7.392,0,0,1,3,1.052A5.936,5.936,0,0,1,31.922,13a3.92,3.92,0,0,1,.658,1.96.578.578,0,0,1-.144.382.508.508,0,0,1-.408.171H29.581a.986.986,0,0,1-.447-.105.774.774,0,0,1-.343-.395,2.089,2.089,0,0,0-1-1.4,4.018,4.018,0,0,0-2.262-.578,4.319,4.319,0,0,0-2.277.526,1.78,1.78,0,0,0-.854,1.631,1.8,1.8,0,0,0,.421,1.224,3.431,3.431,0,0,0,1.38.855,25.6,25.6,0,0,0,2.566.789,18.108,18.108,0,0,1,3.643,1.157,4.9,4.9,0,0,1,2.08,1.671,4.559,4.559,0,0,1,.67,2.565,4.761,4.761,0,0,1-.75,2.671,5.391,5.391,0,0,1-2.118,1.842,9.378,9.378,0,0,1-3.21.907v1.816a.627.627,0,0,1-.631.631Z" transform="translate(-0.09)" fill="#fff"/>
  <path id="Path_33" data-name="Path 33" d="M52.272,6.783h0a.738.738,0,0,1-.738-.738v-2.9a.738.738,0,1,1,1.476,0v2.9a.738.738,0,0,1-.738.738" transform="translate(-0.215)" fill="#fef8f1"/>
  <path id="Path_34" data-name="Path 34" d="M52.272,14.293h0a.738.738,0,0,1-.738-.738v-2.9a.738.738,0,1,1,1.476,0v2.9a.738.738,0,0,1-.738.738" transform="translate(-0.215)" fill="#fef8f1"/>
  <path id="Path_35" data-name="Path 35" d="M53.84,8.35h0a.737.737,0,0,1,.737-.738h2.9a.738.738,0,0,1,0,1.476h-2.9a.737.737,0,0,1-.737-.738" transform="translate(-0.215)" fill="#fef8f1"/>
  <path id="Path_36" data-name="Path 36" d="M46.329,8.35h0a.738.738,0,0,1,.738-.738h2.9a.738.738,0,1,1,0,1.476h-2.9a.738.738,0,0,1-.738-.738" transform="translate(-0.215)" fill="#fef8f1"/>
  <path id="Path_37" data-name="Path 37" d="M21.321,52.013v2.64c.2.009.376.024.552.024,2.463,0,4.927-.006,7.39,0a4.84,4.84,0,0,0,2.684-.878c1.589-1.01,3.227-1.944,4.849-2.9,1.779-1.049,3.555-2.1,5.349-3.127A10.757,10.757,0,0,1,50.9,46.82a1.471,1.471,0,0,1,1.145,1.239c.1.656-.318,1.035-.819,1.351q-11.7,7.386-23.4,14.768a1.6,1.6,0,0,1-.8.234c-5.144.013-10.288,0-15.432.018a.638.638,0,0,1-.707-.485C9.562,60.581,8.221,57.226,6.9,53.865a.909.909,0,0,1-.078-.563,11.657,11.657,0,0,1,3.64-5.515,8.112,8.112,0,0,1,7.256-1.354,4.95,4.95,0,0,1,.939.266,8.42,8.42,0,0,0,3.614.544c2.009-.019,4.021,0,6.03.027a2.37,2.37,0,0,1,1.893,3.749,2.4,2.4,0,0,1-2.122,1c-2.028-.007-4.057,0-6.085,0Z" transform="translate(0 -0.794)" fill="none" stroke="#fef8f1" stroke-miterlimit="10" stroke-width="2"/>
  <path id="Path_38" data-name="Path 38" d="M1,53.958l5.27-3.2L12.6,66.632c-.856.515-1.7,1.013-2.529,1.524-.878.54-1.749,1.092-2.624,1.638H7.334Q4.325,62.235,1.313,54.679c-.085-.212-.208-.408-.313-.612v-.109" transform="translate(0 -0.794)" fill="#fef8f1"/>
  <path id="Path_39" data-name="Path 39" d="M1,53.958l5.27-3.2L12.6,66.632c-.856.515-1.7,1.013-2.529,1.524-.878.54-1.749,1.092-2.624,1.638H7.334Q4.325,62.235,1.313,54.679c-.085-.212-.208-.408-.313-.612Z" transform="translate(0 -0.794)" fill="none" stroke="#fef8f1" stroke-linecap="round" stroke-linejoin="round" stroke-width="2"/>
  <rect id="Rectangle_67" data-name="Rectangle 67" width="58" height="70" fill="none"/>
</svg>
