<svg id="icon_osbonds_sec4_4_mb" xmlns="http://www.w3.org/2000/svg" xmlns:xlink="http://www.w3.org/1999/xlink" width="80" height="80" viewBox="0 0 80 80">
    <path id="Path_147" data-name="Path 147" d="M48.452,21.575H26.474V33.954" fill="none" stroke="#04327a" stroke-linecap="round" stroke-linejoin="round" stroke-width="2.222"/>
    <path id="Path_148" data-name="Path 148" d="M38.561,57.943H54.989V27.981" fill="none" stroke="#04327a" stroke-linecap="round" stroke-linejoin="round" stroke-width="2.222"/>
    <line id="Line_90" data-name="Line 90" x1="18.807" transform="translate(31.583 29.365)" fill="none" stroke="#04327a" stroke-linecap="round" stroke-linejoin="round" stroke-width="2.222"/>
    <line id="Line_91" data-name="Line 91" x1="15.668" transform="translate(34.722 36.541)" fill="none" stroke="#04327a" stroke-linecap="round" stroke-linejoin="round" stroke-width="2.222"/>
    <line id="Line_92" data-name="Line 92" x1="13.976" transform="translate(36.414 43.716)" fill="none" stroke="#04327a" stroke-linecap="round" stroke-linejoin="round" stroke-width="2.222"/>
    <line id="Line_93" data-name="Line 93" x1="13.976" transform="translate(36.414 50.892)" fill="none" stroke="#04327a" stroke-linecap="round" stroke-linejoin="round" stroke-width="2.222"/>
    <path id="Path_149" data-name="Path 149" d="M34.211,59.164H18.736V58.055a7.737,7.737,0,1,1,15.475,0Z" fill="#fff"/>
    <path id="Path_150" data-name="Path 150" d="M34.211,59.164H18.736V58.055a7.737,7.737,0,1,1,15.475,0Z" fill="none" stroke="#04327a" stroke-linecap="round" stroke-linejoin="round" stroke-width="2.222"/>
    <path id="Path_151" data-name="Path 151" d="M26.343,47.964h0a4.6,4.6,0,0,0,4.6-4.6V41.94a4.6,4.6,0,0,0-9.2,0v1.422a4.6,4.6,0,0,0,4.6,4.6" fill="#fff"/>
    <path id="Path_152" data-name="Path 152" d="M26.343,47.964h0a4.6,4.6,0,0,0,4.6-4.6V41.94a4.6,4.6,0,0,0-9.2,0v1.422A4.6,4.6,0,0,0,26.343,47.964Z" fill="none" stroke="#04327a" stroke-linecap="round" stroke-linejoin="round" stroke-width="2.222"/>
    <path id="Path_153" data-name="Path 153" d="M61.264,21.575a6.406,6.406,0,1,1-6.406-6.406,6.406,6.406,0,0,1,6.406,6.406" fill="#df5429"/>
    <circle id="Ellipse_29" data-name="Ellipse 29" cx="6.406" cy="6.406" r="6.406" transform="translate(48.452 15.169)" fill="none" stroke="#04327a" stroke-linecap="round" stroke-linejoin="round" stroke-width="2.222"/>
    <line id="Line_94" data-name="Line 94" x2="5.241" transform="translate(52.237 21.575)" fill="none" stroke="#04327a" stroke-linecap="round" stroke-linejoin="round" stroke-width="2.222"/>
    <line id="Line_95" data-name="Line 95" y2="5.241" transform="translate(54.858 18.954)" fill="none" stroke="#04327a" stroke-linecap="round" stroke-linejoin="round" stroke-width="2.222"/>
</svg>
