<svg width="25" height="23" viewBox="0 0 25 23" fill="none" xmlns="http://www.w3.org/2000/svg">
<path d="M19.1084 5.75H23.4077C24.0978 5.75 24.6286 6.42955 24.4162 7.10909L21.9746 14.95C21.8154 15.3682 21.4438 15.6818 20.9661 15.6818H8.49268" stroke="white" stroke-miterlimit="10"/>
<path d="M21.2314 17.7727H9.81953C9.34183 17.7727 8.9172 17.4591 8.81104 17.0409L4.98938 4.39091C4.88323 3.97272 4.4586 3.65909 3.98089 3.65909H0" stroke="white" stroke-miterlimit="10"/>
<path d="M9.02326 22.4773C9.9027 22.4773 10.6156 21.7752 10.6156 20.9091C10.6156 20.043 9.9027 19.3409 9.02326 19.3409C8.14383 19.3409 7.43091 20.043 7.43091 20.9091C7.43091 21.7752 8.14383 22.4773 9.02326 22.4773Z" stroke="white" stroke-miterlimit="10"/>
<path d="M19.639 22.4773C20.5184 22.4773 21.2313 21.7752 21.2313 20.9091C21.2313 20.043 20.5184 19.3409 19.639 19.3409C18.7596 19.3409 18.0466 20.043 18.0466 20.9091C18.0466 21.7752 18.7596 22.4773 19.639 22.4773Z" stroke="white" stroke-miterlimit="10"/>
<path d="M11.6773 5.75H5.30786" stroke="white" stroke-miterlimit="10"/>
<path d="M16.9851 6.79546C16.9851 3.34546 19.8514 0.522736 23.3546 0.522736H19.6391C16.1359 0.522736 13.2696 3.34546 13.2696 6.79546V7.84092H11.1465L15.3928 13.0682L19.1083 7.84092H16.9851V6.79546Z" stroke="white" stroke-miterlimit="10"/>
</svg>
