<svg id="icon_osbonds_sec4_2_mb" xmlns="http://www.w3.org/2000/svg" xmlns:xlink="http://www.w3.org/1999/xlink" width="80" height="80" viewBox="0 0 80 80">
    <path id="Path_128" data-name="Path 128" d="M37.393,48.083v1.961c.149.007.281.018.412.018,1.839,0,3.677-.005,5.516,0a3.64,3.64,0,0,0,2-.652c1.186-.751,2.408-1.445,3.619-2.155,1.327-.779,2.653-1.562,3.991-2.323a8.066,8.066,0,0,1,6.533-.71,1.1,1.1,0,0,1,.854.921c.077.487-.238.768-.611,1Q50.979,51.636,42.245,57.12a1.188,1.188,0,0,1-.6.173c-3.839.01-7.679.005-11.518.014a.476.476,0,0,1-.527-.36c-.984-2.5-1.984-4.992-2.974-7.488a.672.672,0,0,1-.057-.419,8.656,8.656,0,0,1,2.717-4.1A6.074,6.074,0,0,1,34.7,43.938a3.741,3.741,0,0,1,.7.2,6.329,6.329,0,0,0,2.7.405c1.5-.015,3,0,4.5.019a1.761,1.761,0,0,1,1.413,2.786,1.8,1.8,0,0,1-1.584.74c-1.514-.006-3.028,0-4.542,0h-.494" fill="#fff"/>
    <path id="Path_129" data-name="Path 129" d="M37.393,48.083v1.961c.149.007.281.018.412.018,1.839,0,3.677-.005,5.516,0a3.64,3.64,0,0,0,2-.652c1.186-.751,2.408-1.445,3.619-2.155,1.327-.779,2.653-1.562,3.991-2.323a8.066,8.066,0,0,1,6.533-.71,1.1,1.1,0,0,1,.854.921c.077.487-.238.768-.611,1Q50.979,51.636,42.245,57.12a1.188,1.188,0,0,1-.6.173c-3.839.01-7.679.005-11.518.014a.476.476,0,0,1-.527-.36c-.984-2.5-1.984-4.992-2.974-7.488a.672.672,0,0,1-.057-.419,8.656,8.656,0,0,1,2.717-4.1A6.074,6.074,0,0,1,34.7,43.938a3.741,3.741,0,0,1,.7.2,6.329,6.329,0,0,0,2.7.405c1.5-.015,3,0,4.5.019a1.761,1.761,0,0,1,1.413,2.786,1.8,1.8,0,0,1-1.584.74c-1.514-.006-3.028,0-4.542,0Z" fill="none" stroke="#04327a" stroke-linecap="round" stroke-linejoin="round" stroke-width="2.222"/>
    <path id="Path_130" data-name="Path 130" d="M22.246,49.528l3.915-2.374C27.734,51.1,29.29,55,30.86,58.943c-.636.383-1.26.753-1.878,1.132-.653.4-1.3.811-1.949,1.217h-.082q-2.235-5.615-4.473-11.229c-.063-.157-.154-.3-.232-.454Z" fill="none" stroke="#04327a" stroke-linecap="round" stroke-linejoin="round" stroke-width="2.222"/>
    <path id="Path_131" data-name="Path 131" d="M54.112,27.765A12.694,12.694,0,1,1,41.417,15.07,12.7,12.7,0,0,1,54.112,27.765" fill="#df5429"/>
    <path id="Path_132" data-name="Path 132" d="M54.112,27.765A12.694,12.694,0,1,1,41.417,15.07,12.7,12.7,0,0,1,54.112,27.765Z" fill="none" stroke="#04327a" stroke-linecap="round" stroke-linejoin="round" stroke-width="2.222"/>
    <path id="Path_133" data-name="Path 133" d="M40.754,35.285a.42.42,0,0,1-.421-.421V33.636a5.517,5.517,0,0,1-2.192-.622A3.7,3.7,0,0,1,36.79,31.8a2.96,2.96,0,0,1-.491-1.483.343.343,0,0,1,.114-.263.388.388,0,0,1,.272-.105h1.561a.527.527,0,0,1,.333.1.7.7,0,0,1,.193.237,2.085,2.085,0,0,0,.412.658,2.131,2.131,0,0,0,.816.535,3.57,3.57,0,0,0,1.315.21,3.349,3.349,0,0,0,1.877-.421,1.314,1.314,0,0,0,.614-1.14,1.069,1.069,0,0,0-.324-.815,3,3,0,0,0-1.027-.562,18.812,18.812,0,0,0-1.841-.534,10.513,10.513,0,0,1-2.193-.763,3.337,3.337,0,0,1-1.341-1.132,3.107,3.107,0,0,1-.448-1.736,3.072,3.072,0,0,1,.983-2.3,4.589,4.589,0,0,1,2.718-1.158V19.92a.42.42,0,0,1,.421-.421h1.07a.42.42,0,0,1,.421.421v1.246a4.917,4.917,0,0,1,2,.7,3.966,3.966,0,0,1,1.228,1.2,2.612,2.612,0,0,1,.439,1.306.391.391,0,0,1-.1.255.34.34,0,0,1-.273.114h-1.63a.655.655,0,0,1-.3-.071.511.511,0,0,1-.228-.263,1.391,1.391,0,0,0-.666-.929,2.676,2.676,0,0,0-1.509-.386,2.87,2.87,0,0,0-1.517.351,1.323,1.323,0,0,0-.289,1.9,2.287,2.287,0,0,0,.92.57,16.9,16.9,0,0,0,1.711.526,12.094,12.094,0,0,1,2.429.772,3.254,3.254,0,0,1,1.386,1.114,3.036,3.036,0,0,1,.447,1.71,3.177,3.177,0,0,1-.5,1.78,3.589,3.589,0,0,1-1.412,1.228,6.257,6.257,0,0,1-2.14.6v1.21a.42.42,0,0,1-.421.421Z" fill="#fff"/>
</svg>
