<svg id="icon_osbonds_kv_btn_1" xmlns="http://www.w3.org/2000/svg" xmlns:xlink="http://www.w3.org/1999/xlink" width="40" height="40" viewBox="0 0 40 40">
    <path id="Path_155" data-name="Path 155" d="M32.355,28.581l2.384,2.383a.667.667,0,0,1-.943.943l-2.383-2.384a6,6,0,0,1-9.743-4.858A6.068,6.068,0,0,1,27.5,18.838a6,6,0,0,1,4.858,9.743m-1.337-.495a4.666,4.666,0,1,0-.1.1Z" fill="#04327a"/>
    <path id="Path_156" data-name="Path 156" d="M22.336,13.353h-8.62l-1.333-4.7H23.669Z" fill="none" stroke="#04327a" stroke-linecap="round" stroke-linejoin="round" stroke-width="1.481"/>
    <path id="Path_157" data-name="Path 157" d="M24.063,17.5l-1.728-4.149h-8.62l-4.5,10.805a3.761,3.761,0,0,0,3.472,5.206h8.121" fill="none" stroke="#04327a" stroke-linecap="round" stroke-linejoin="round" stroke-width="1.481"/>
    <path id="Path_158" data-name="Path 158" d="M17.723,24.817a.229.229,0,0,1-.166-.068.225.225,0,0,1-.068-.166V23.9a3.078,3.078,0,0,1-1.221-.347,2.054,2.054,0,0,1-.752-.674,1.637,1.637,0,0,1-.274-.825.189.189,0,0,1,.064-.146.216.216,0,0,1,.151-.059h.87a.289.289,0,0,1,.185.054.4.4,0,0,1,.108.132,1.165,1.165,0,0,0,.229.366,1.189,1.189,0,0,0,.454.3,1.991,1.991,0,0,0,.732.117,1.872,1.872,0,0,0,1.046-.234.734.734,0,0,0,.341-.635.6.6,0,0,0-.18-.454,1.66,1.66,0,0,0-.572-.313,10.453,10.453,0,0,0-1.025-.3,5.816,5.816,0,0,1-1.221-.425,1.854,1.854,0,0,1-.747-.63,1.733,1.733,0,0,1-.249-.966,1.711,1.711,0,0,1,.547-1.28,2.561,2.561,0,0,1,1.514-.645v-.673a.223.223,0,0,1,.068-.166.226.226,0,0,1,.166-.069h.6a.234.234,0,0,1,.234.235v.693a2.731,2.731,0,0,1,1.113.391,2.189,2.189,0,0,1,.684.669,1.45,1.45,0,0,1,.244.727.218.218,0,0,1-.053.142.19.19,0,0,1-.152.063h-.908a.365.365,0,0,1-.166-.039.287.287,0,0,1-.127-.146.775.775,0,0,0-.371-.518,1.491,1.491,0,0,0-.84-.215,1.6,1.6,0,0,0-.845.2.659.659,0,0,0-.317.6.668.668,0,0,0,.156.454,1.263,1.263,0,0,0,.513.318,9.5,9.5,0,0,0,.952.293,6.75,6.75,0,0,1,1.353.429,1.815,1.815,0,0,1,.771.621,1.689,1.689,0,0,1,.249.952,1.762,1.762,0,0,1-.278.991,2.013,2.013,0,0,1-.786.684,3.492,3.492,0,0,1-1.192.337v.674a.232.232,0,0,1-.234.234Z" fill="#04327a"/>
</svg>
