<svg id="icon_osbonds_sec4_3_mb" xmlns="http://www.w3.org/2000/svg" xmlns:xlink="http://www.w3.org/1999/xlink" width="80" height="80" viewBox="0 0 80 80">
    <path id="Path_135" data-name="Path 135" d="M58.322,54.172l2.953,2.952a.827.827,0,0,1-1.169,1.169L57.154,55.34a7.433,7.433,0,0,1-12.07-6.02A7.515,7.515,0,0,1,52.3,42.1a7.433,7.433,0,0,1,6.02,12.07m-1.657-.613a5.779,5.779,0,1,0-.124.124Z" fill="#04327a"/>
    <path id="Path_136" data-name="Path 136" d="M45.081,21.575h7.91V38.016" fill="none" stroke="#04327a" stroke-linecap="round" stroke-linejoin="round" stroke-width="2.222"/>
    <path id="Path_137" data-name="Path 137" d="M45.081,57.943h-20.6V21.575H35.531" fill="none" stroke="#04327a" stroke-linecap="round" stroke-linejoin="round" stroke-width="2.222"/>
    <line id="Line_86" data-name="Line 86" x2="18.807" transform="translate(29.586 31.877)" fill="none" stroke="#04327a" stroke-linecap="round" stroke-linejoin="round" stroke-width="2.222"/>
    <line id="Line_87" data-name="Line 87" x2="18.807" transform="translate(29.586 38.215)" fill="none" stroke="#04327a" stroke-linecap="round" stroke-linejoin="round" stroke-width="2.222"/>
    <line id="Line_88" data-name="Line 88" x2="12.277" transform="translate(29.586 44.554)" fill="none" stroke="#04327a" stroke-linecap="round" stroke-linejoin="round" stroke-width="2.222"/>
    <line id="Line_89" data-name="Line 89" x2="12.277" transform="translate(29.586 50.892)" fill="none" stroke="#04327a" stroke-linecap="round" stroke-linejoin="round" stroke-width="2.222"/>
    <path id="Path_138" data-name="Path 138" d="M44.145,21.4A4.145,4.145,0,1,1,40,17.257,4.145,4.145,0,0,1,44.145,21.4" fill="#df5429"/>
    <circle id="Ellipse_28" data-name="Ellipse 28" cx="4.145" cy="4.145" r="4.145" transform="translate(35.855 17.257)" fill="none" stroke="#04327a" stroke-linecap="round" stroke-linejoin="round" stroke-width="2.222"/>
    <path id="Path_139" data-name="Path 139" d="M41.862,21.4A1.862,1.862,0,1,1,40,19.54,1.862,1.862,0,0,1,41.862,21.4" fill="#04327a"/>
    <path id="Path_140" data-name="Path 140" d="M35.9,22l-3.771,3.771,2.344.679.679,2.344,3.482-3.481A4.144,4.144,0,0,1,35.9,22" fill="#df5429"/>
    <path id="Path_141" data-name="Path 141" d="M35.9,22l-3.771,3.771,2.344.679.679,2.344,3.482-3.481A4.144,4.144,0,0,1,35.9,22Z" fill="none" stroke="#04327a" stroke-linecap="round" stroke-linejoin="round" stroke-width="2.222"/>
    <path id="Path_142" data-name="Path 142" d="M44.1,22l3.771,3.771-2.344.679-.679,2.344-3.482-3.481A4.144,4.144,0,0,0,44.1,22" fill="#df5429"/>
    <path id="Path_143" data-name="Path 143" d="M44.1,22l3.771,3.771-2.344.679-.679,2.344-3.482-3.481A4.144,4.144,0,0,0,44.1,22Z" fill="none" stroke="#04327a" stroke-linecap="round" stroke-linejoin="round" stroke-width="2.222"/>
    <path id="Path_144" data-name="Path 144" d="M56.665,53.559a5.779,5.779,0,1,0-.124.124Z" fill="#fff"/>
    <path id="Path_145" data-name="Path 145" d="M56.665,53.559a5.779,5.779,0,1,0-.124.124Z" fill="none" stroke="#04327a" stroke-linecap="round" stroke-linejoin="round" stroke-width="2.222"/>
</svg>
